<svg class="svg-word" xmlns="http://www.w3.org/2000/svg" viewBox="294 362 600 240">
    <path d="M425.9 457.6C425.9 461.5 426.4 464.9 427.4 467.7 428.3 470.6 429.8 473.1 431.7 475.4 433.6 477.6 436 479.7 438.8 481.6 441.6 483.4 444.8 485.4 448.6 487.4 452.5 489.5 455.9 491.5 458.8 493.4 461.7 495.3 464.1 497.4 466.1 499.6 468.1 501.9 469.6 504.4 470.6 507.2 471.6 509.9 472.1 513.3 472.1 517.2 472.1 520.6 471.6 523.7 470.5 526.5 469.5 529.3 468 531.6 466.1 533.7 464.2 535.7 462 537.2 459.4 538.4 456.8 539.5 453.9 540 450.7 540 446 540 441.9 538.9 438.4 536.5 434.9 534.1 432.4 530.8 430.7 526.6 429.9 524.4 429.4 522.4 429.1 520.5 428.9 518.7 428.7 517 428.6 515.5 428.5 514 428.3 512.8 428.1 511.9 427.8 511.1 427.4 510.6 426.7 510.6 425 510.6 424.2 512.6 424.2 516.6 424.2 517.9 424.1 519.5 424.1 521.4 424 523.3 424 525.6 424 528.3 424 530.9 424.2 533 424.5 534.5 424.9 535.9 425.8 537.3 427.2 538.6 428.8 540.2 431.6 541.6 435.5 543 439.4 544.3 443.6 545 448.2 545 453 545 457.4 544.1 461.6 542.3 465.8 540.6 469.4 538.1 472.5 534.9 475.6 531.7 478 527.9 479.8 523.6 481.5 519.2 482.4 514.3 482.4 509 482.4 504.8 481.8 501 480.7 497.8 479.6 494.5 478 491.6 475.9 488.9 473.7 486.3 471.1 483.8 468 481.6 464.9 479.3 461.3 477.1 457.3 475 453.5 473 450.2 471.1 447.5 469.3 444.7 467.6 442.3 465.7 440.5 463.7 438.6 461.8 437.2 459.7 436.3 457.5 435.4 455.4 435 452.8 435 450 435 444.2 436.7 439.7 440 436.4 443.4 433.1 448.1 431.4 454.1 431.4 458.2 431.4 461.7 432.5 464.4 434.7 467.2 436.9 469.5 440.2 471.3 444.7 472.4 447.5 473.1 449.7 473.4 451.3 473.6 452.9 474.3 453.7 475.5 453.7 476.8 453.7 477.5 452.6 477.5 450.2 477.5 439.6 477 433.6 476 432.5 475.1 431.4 472.6 430.2 468.7 428.8 464.7 427.5 460.3 426.8 455.5 426.8 451 426.8 447 427.5 443.4 429 439.8 430.5 436.7 432.6 434.1 435.3 431.5 438 429.5 441.3 428.1 445.1 426.7 448.8 425.9 453 425.9 457.6L425.9 457.6ZM528.1 460.5C523.1 460.5 518.5 461.5 514.3 463.5 510 465.5 506.3 468.3 503.2 472 500.1 475.6 497.7 480.1 495.9 485.3 494.2 490.5 493.4 496.3 493.4 502.6 493.4 508.9 494.2 514.6 495.9 519.8 497.5 525 499.8 529.5 502.8 533.2 505.7 536.9 509.3 539.8 513.4 541.9 517.5 544 522.1 545 527.2 545 532.8 545 537.9 544 542.4 542 546.9 540 550.7 537.1 553.8 533.4 556.9 529.7 559.3 525.2 561 519.9 562.6 514.7 563.5 508.8 563.5 502.5 563.5 496.2 562.7 490.5 561.1 485.3 559.5 480.1 557.2 475.6 554.2 472 551.2 468.3 547.5 465.5 543 463.5 538.6 461.5 533.6 460.5 528.1 460.5L528.1 460.5ZM528.4 463.7C535.6 463.7 541.4 467.2 545.7 474.3 550 481.4 552.1 491.4 552.1 504.4 552.1 516.6 550 525.8 545.8 532.2 541.5 538.5 535.6 541.6 528.1 541.6 524.6 541.6 521.5 540.7 518.6 538.9 515.7 537.1 513.2 534.4 511.1 530.9 509 527.4 507.3 523.2 506.1 518.3 504.9 513.4 504.4 507.8 504.4 501.6 504.4 489.2 506.5 479.8 510.8 473.3 515.1 466.9 521 463.7 528.4 463.7L528.4 463.7ZM607.7 460.5C603.2 460.5 598.9 461.5 594.6 463.5 590.4 465.5 586.6 468.3 583.4 472 580.1 475.6 577.5 480.1 575.6 485.3 573.6 490.5 572.7 496.3 572.7 502.6 572.7 509 573.5 514.8 575.2 520 576.8 525.2 579.1 529.7 582.1 533.4 585 537.1 588.5 540 592.4 542 596.4 544 600.6 545 605.2 545 608.8 545 612 544.4 614.8 543.3 617.6 542.2 620 540.9 622.1 539.3 624.1 537.8 625.6 536.2 626.7 534.6 627.9 533 628.4 531.8 628.4 531 628.4 530.3 628 529.9 627.2 529.9 626.8 529.9 626.2 530.4 625.4 531.4 624.6 532.3 623.4 533.3 621.9 534.5 620.3 535.6 618.5 536.6 616.3 537.6 614.1 538.5 611.6 539 608.6 539 601.2 539 595.2 535.8 590.5 529.3 585.9 522.9 583.6 513.6 583.6 501.6 583.6 495.4 584.2 490 585.4 485.3 586.6 480.6 588.2 476.6 590.2 473.4 592.2 470.2 594.5 467.8 597.2 466.2 599.8 464.6 602.6 463.8 605.6 463.8 608.7 463.8 611.2 464.7 613.3 466.5 615.4 468.3 617.4 470.9 619.4 474.5 620.7 476.9 621.6 478.9 622.1 480.2 622.5 481.6 623.4 482.3 624.5 482.3 626.3 482.3 627.2 478.6 627.2 471.3 627.2 467.9 625.4 465.2 622 463.3 618.5 461.4 613.7 460.5 607.7 460.5L607.7 460.5ZM650 430C648.4 430 646.9 430.9 645.7 432.6 644.4 434.4 643.8 436.5 643.8 438.8 643.8 441.2 644.4 443.2 645.7 444.9 646.9 446.5 648.4 447.4 650 447.4 651.8 447.4 653.3 446.5 654.5 444.8 655.8 443.1 656.4 441.1 656.4 438.8 656.4 436.5 655.7 434.4 654.4 432.6 653.1 430.9 651.7 430 650 430L650 430ZM655.5 464.7C655.5 463.4 655.4 462.5 655.3 462 655.2 461.4 654.9 461.2 654.3 461.2 653.6 461.2 652.4 461.9 650.7 463.5 649.1 465 646.6 466.7 643.3 468.6 641.8 469.9 640.3 470.8 639 471.3 637.6 471.8 636.9 472.6 636.9 473.8 636.9 474.6 637.2 475.1 637.8 475.3 638.4 475.4 639.2 475.5 640.1 475.5 643.8 475.5 645.6 477.7 645.6 482.1L645.6 530.8C645.6 533.2 645 534.8 643.9 535.8 642.8 536.7 641.6 537.4 640.3 537.6 639 537.9 637.8 538.2 636.7 538.4 635.5 538.5 635 539.1 635 540 635 540.9 635.2 541.4 635.8 541.5 636.3 541.7 637 541.8 638 541.8 639.3 541.8 641 541.7 643 541.5 645.1 541.2 647.5 541.1 650.2 541.1 653.6 541.1 656.4 541.2 658.4 541.5 660.5 541.7 661.9 541.8 662.6 541.8 663.5 541.8 664.2 541.8 664.6 541.6 665 541.5 665.2 541 665.2 540 665.2 539.1 664.7 538.5 663.7 538.4 662.7 538.2 661.6 537.9 660.4 537.6 659.1 537.4 658 536.8 657 535.9 656 535 655.5 533.3 655.5 530.8L655.5 464.7ZM719.2 480.5C719.2 477.4 719.1 474.6 718.9 472.2 718.6 469.7 718 467.6 716.9 465.8 715.9 464 714.3 462.7 712.1 461.7 710 460.8 707.1 460.3 703.5 460.3 698.9 460.3 694.6 461.2 690.7 462.9 686.8 464.7 683.5 466.9 680.6 469.5 677.8 472.1 675.6 474.8 674.1 477.7 672.6 480.5 671.8 483 671.8 485.1 671.8 486 672.1 486.8 672.7 487.3 673.3 487.8 674 488.1 674.8 488.1 678.1 488.1 680.4 486.8 681.7 484.3 683 481.8 684.3 478.7 685.6 475 686.7 472 688.5 469.5 691.3 467.4 694 465.3 696.9 464.2 699.9 464.2 703.6 464.2 706 465.4 707.1 467.7 708.2 470.1 708.8 474 708.8 479.4L708.8 495C702.8 498.5 697.5 501.6 692.8 504.6 688.2 507.5 684.4 510.4 681.3 513.2 678.1 516 675.8 518.8 674.3 521.7 672.7 524.6 672 527.7 672 531 672 535.3 673.1 538.6 675.5 541.2 677.9 543.7 681.2 545 685.4 545 689.2 545 692.8 543.9 696.3 541.6 699.8 539.4 703.8 536.4 708.2 532.6L709 532.6C710 536.7 711.2 539.7 712.4 541.5 713.6 543.4 715.4 544.3 717.8 544.3 719 544.3 720.4 543.9 722 543.1 723.6 542.4 725.1 541.4 726.5 540.2 727.9 539 729.1 537.8 730.1 536.6 731.1 535.3 731.6 534.2 731.6 533.3 731.6 532.5 731.2 532.1 730.4 532.1 729.7 532.1 728.7 532.7 727.6 534 726.5 535.3 725.3 536 724 536 720.8 536 719.2 532.3 719.2 525L719.2 480.5ZM709 502.1L709 518.4C709 521.4 708.4 524 707.4 526.3 706.3 528.6 704.9 530.6 703.2 532.2 701.5 533.7 699.7 535 697.7 535.8 695.8 536.6 693.9 537 692.1 537 689.2 537 686.9 536.1 685.2 534.1 683.6 532.2 682.8 529.5 682.8 526.2 682.8 518.4 688.8 511 700.8 504.1L706.1 501.1C706.9 500.6 707.5 500.3 707.9 500.3 708.6 500.3 709 500.9 709 502.1L709 502.1ZM754.8 422.9C754.8 420.3 754.4 419 753.6 419 753 419 751.9 419.6 750.3 420.7 748.7 421.8 746.4 422.9 743.3 424 741.4 424.6 739.8 425 738.3 425.2 736.9 425.4 736.2 426.2 736.2 427.5 736.2 428.6 736.6 429.1 737.5 429.1 738 429.1 738.5 429.1 738.8 429 739.1 429 739.3 428.9 739.4 428.9 743.1 428.9 744.9 431.6 744.9 436.9L744.9 530.8C744.9 533.2 744.4 534.8 743.3 535.7 742.2 536.6 741.1 537.2 739.8 537.6 738.5 537.9 737.3 538.2 736.2 538.4 735.2 538.5 734.6 539.1 734.6 540 734.6 540.9 734.9 541.4 735.3 541.5 735.8 541.7 736.6 541.8 737.6 541.8 739 541.8 740.8 541.7 742.8 541.5 744.9 541.2 747.2 541.1 749.8 541.1 752.8 541.1 755.2 541.2 757.1 541.5 759 541.7 760.4 541.8 761.3 541.8 762.3 541.8 763 541.7 763.4 541.5 763.8 541.4 764 540.9 764 540 764 539.1 763.5 538.5 762.6 538.4 761.6 538.2 760.6 537.9 759.4 537.6 758.2 537.4 757.2 536.8 756.2 535.9 755.3 535 754.8 533.3 754.8 530.8L754.8 422.9Z"/>
</svg>
