<svg class="svg-word" xmlns="http://www.w3.org/2000/svg" viewBox="-481 -521 600 240">
  <path d="M-375-401.1C-375-393.4-376.9-386.2-380.8-379.6 -384.6-372.9-389.8-367.7-396.5-363.9 -403.1-360-410.2-358.1-418-358.1L-418-401.1 -418-444C-410.2-444-403-442.1-396.4-438.3 -389.8-434.5-384.6-429.3-380.8-422.7 -376.9-416.1-375-408.9-375-401.1L-375-401.1ZM-323-444C-315.2-444-308-442.1-301.4-438.3 -294.8-434.5-289.6-429.3-285.8-422.7 -282-416.1-280-408.8-280-401L-322.9-401 -365.9-401C-365.9-408.8-364-416-360.1-422.6 -356.3-429.2-351.1-434.4-344.5-438.2 -337.9-442.1-330.8-444-323-444L-323-444ZM-365.9-398.8L-322.9-398.8 -322.9-398.1 -322.9-397.4 -365.7-397.4C-365.7-397.5-365.8-397.8-365.8-398.1 -365.8-398.2-365.8-398.3-365.8-398.5 -365.9-398.6-365.9-398.8-365.9-398.8L-365.9-398.8ZM-365.4-394.2L-365.4-394.6 -365.4-395 -323-395 -323-394.2 -323-393.4 -365.2-393.4C-365.3-393.4-365.3-393.6-365.3-393.8 -365.3-393.9-365.4-394.1-365.4-394.2L-365.4-394.2ZM-364.5-390.3C-364.7-390.7-364.8-390.9-364.8-391.1L-322.9-391.1 -322.9-390.3 -322.9-389.5 -364.3-389.5C-364.4-389.6-364.4-389.7-364.5-389.9 -364.5-390.1-364.5-390.2-364.5-390.3L-364.5-390.3ZM-363.3-386.3C-363.3-386.7-363.5-386.9-363.6-387.1L-322.9-387.1 -322.9-386.3 -322.9-385.6 -363-385.6C-363-385.7-363.1-385.8-363.2-385.9 -363.2-386.1-363.3-386.2-363.3-386.3L-363.3-386.3ZM-361.7-382.5C-361.8-382.6-361.8-382.7-361.9-382.9 -362-383-362-383.1-362-383.2L-323-383.2 -323-382.5 -323-381.7 -361.3-381.7C-361.4-381.8-361.5-381.9-361.6-382.1 -361.6-382.2-361.7-382.4-361.7-382.5L-361.7-382.5ZM-359.5-378.5C-359.7-378.8-359.9-379-360-379.3L-322.9-379.3 -322.9-378.5 -322.9-377.7 -359.1-377.7C-359.1-377.8-359.2-378.1-359.5-378.5L-359.5-378.5ZM-356.8-374.7C-356.8-374.7-357-374.8-357.1-375 -357.3-375.1-357.3-375.3-357.3-375.3L-322.9-375.3 -322.9-374.7 -322.9-373.9 -356.2-373.9C-356.3-373.9-356.4-374.1-356.5-374.3 -356.6-374.4-356.7-374.6-356.8-374.7L-356.8-374.7ZM-353.4-370.7L-353.5-370.8 -353.6-370.9 -353.7-371 -353.8-371.2 -353.9-371.3 -354-371.5 -322.9-371.5 -322.9-370.7 -322.9-369.9 -352.4-369.9C-352.7-370-353-370.3-353.4-370.7L-353.4-370.7ZM-348.8-366.8C-349.4-367.2-349.7-367.5-349.8-367.6L-322.9-367.6 -322.9-366.8 -322.9-366.1 -347.8-366.1C-347.9-366.2-348.1-366.3-348.3-366.4 -348.6-366.6-348.7-366.7-348.8-366.8L-348.8-366.8ZM-342.6-362.9C-342.8-363-343-363.1-343.3-363.3 -343.6-363.5-343.9-363.6-344-363.7L-322.9-363.7 -322.9-362.9 -322.9-362.1 -340.9-362.1C-341.7-362.4-342.3-362.7-342.6-362.9L-342.6-362.9ZM-331.5-358.9C-332.9-359.2-334-359.5-334.7-359.7L-323-359.7 -323-358.9 -323-358.2 -325.1-358.2C-326.9-358.3-329-358.5-331.5-358.9L-331.5-358.9ZM-228-401.1C-228-393.4-230-386.2-233.8-379.6 -237.6-372.9-242.8-367.7-249.4-363.9 -256-360-263.2-358.1-270.9-358.1L-270.9-401.1 -228-401.1ZM-228-401.1C-228-408.9-226.1-416.1-222.3-422.7 -218.4-429.3-213.2-434.5-206.6-438.3 -200-442.1-192.8-444-185.1-444L-185.1-401.1 -228-401.1ZM-175.9-358.1L-175.9-444 -133-444 -133-358.1 -175.9-358.1ZM-80.8-398.8L-80.8-398.4 -38-398.4C-38-398.3-38-398.2-38-398 -38.1-397.8-38.1-397.7-38.1-397.6L-38.1-397.2 -38.1-396.8 -80.8-396.8 -80.8-394.5 -38.3-394.5C-38.4-394.4-38.4-394.3-38.4-394.1 -38.4-393.9-38.5-393.8-38.5-393.7 -38.5-393.6-38.6-393.5-38.6-393.3 -38.6-393.1-38.7-393-38.7-392.9L-80.8-392.9 -80.8-390.6 -39.1-390.6C-39.1-390.4-39.2-390.1-39.2-389.8 -39.3-389.7-39.4-389.6-39.4-389.5 -39.4-389.3-39.5-389.2-39.6-389.1L-80.8-389.1 -80.8-386.7 -40.3-386.7C-40.3-386.7-40.3-386.7-40.3-386.7 -40.4-386.6-40.4-386.6-40.4-386.5 -40.4-386.4-40.4-386.2-40.5-386.1 -40.5-386-40.5-385.9-40.5-385.9 -40.6-385.8-40.6-385.8-40.6-385.8 -40.6-385.8-40.6-385.7-40.7-385.5 -40.8-385.4-40.8-385.3-40.8-385.3 -40.8-385.3-40.8-385.2-40.9-385.1 -40.9-385.1-40.9-385-40.9-385L-80.8-385 -80.8-382.9 -41.9-382.9 -41.9-382.8 -41.9-382.6C-41.9-382.6-42-382.5-42-382.4 -42.1-382.2-42.1-382.1-42.1-382.1 -42.1-382.1-42.1-382-42.1-382 -42.2-381.9-42.2-381.8-42.2-381.8 -42.2-381.8-42.3-381.7-42.4-381.6 -42.5-381.4-42.5-381.3-42.5-381.3 -42.5-381.3-42.6-381.2-42.6-381.2 -42.6-381.2-42.7-381.1-42.7-381L-80.8-381 -80.8-378.9 -43.8-378.9C-43.9-378.8-44-378.7-44.1-378.5 -44.2-378.4-44.2-378.3-44.2-378.2 -44.3-378.1-44.5-377.8-44.8-377.4L-80.8-377.4 -80.8-375.1 -46.4-375.1C-46.5-375-46.6-374.9-46.8-374.7 -46.9-374.5-47-374.4-47.1-374.3 -47.2-374.2-47.3-374.1-47.4-373.9 -47.5-373.7-47.6-373.6-47.7-373.5L-80.8-373.5 -80.8-371.2 -49.7-371.2C-49.7-371.2-50-371-50.5-370.4 -50.6-370.4-50.7-370.2-50.9-370 -51.1-369.8-51.3-369.7-51.4-369.6L-80.8-369.6 -80.8-367.4 -54.1-367.4C-54.1-367.3-54.3-367.1-54.5-367 -54.7-366.8-54.9-366.6-55-366.6 -55.1-366.5-55.3-366.4-55.5-366.2 -55.8-366.1-56-365.9-56.1-365.9L-80.8-365.9 -80.8-363.5 -59.8-363.5C-59.9-363.4-60.2-363.3-60.5-363.1 -60.8-363-61.1-362.9-61.2-362.8 -61.4-362.7-61.7-362.6-62-362.4 -62.4-362.2-62.7-362.1-62.8-362L-80.8-362 -80.8-359.7 -69.2-359.7C-70-359.5-71.1-359.2-72.5-358.9 -75-358.5-77.1-358.2-78.9-358.1L-80.8-358.1 -80.8-358C-88.7-358-95.9-359.9-102.5-363.8 -109-367.6-114.2-372.8-118.1-379.4 -121.9-386.1-123.8-393.3-123.8-401.1 -123.8-408.9-121.9-416-118.1-422.6 -114.2-429.2-109-434.4-102.5-438.2 -95.9-442.1-88.7-444-80.8-444L-80.8-401.1 -80.8-398.8ZM-28.6-443.8L57-444 57-443.9 57-443.3 57-442.5 -27.4-442.5 -25.1-440.2 57-440.2 57-439.4 57-438.6 -23.4-438.6 -21.1-436.2 57-436.2 57-435.4 57-434.8 -19.6-434.8 -17.2-432.4 57-432.4 57-431.6 57-430.8 -15.6-430.8 -13.2-428.5 57-428.5 57-427.6 57-426.9 -11.8-426.9 -9.4-424.5 57-424.5 57-423.8 57-423 -7.8-423 -5.4-420.6 57-420.6 57-419.8 57-419 -3.9-419 -1.5-416.7 57-416.7 57-415.9 57-415.1 0.1-415.1 2.5-412.9 57-412.9 57-411.9 57-411.3 4-411.3 6.3-408.9 57-408.9 57-408.2 57-407.4 8-407.4 10.3-405 57-405 57-404.2 57-403.4 11.8-403.4 14.1-401 57-401 57-400.3 57-399.5 15.8-399.5 18.1-397.2 57-397.2 57-396.3 57-395.5 19.7-395.5 22-393.2 57-393.2 57-392.4 57-391.6 23.6-391.6 26-389.4 57-389.4 57-388.6 57-387.8 27.5-387.8 29.9-385.4 57-385.4 57-384.6 57-383.9 31.5-383.9 33.9-381.5 57-381.5 57-380.7 57-379.9 35.3-379.9 37.7-377.6 57-377.6 57-376.8 57-376 39.3-376 41.7-373.6 57-373.6 57-372.9 57-372.1 43.2-372.1 45.6-369.7 57-369.7 57-368.9 57-368.3 47.2-368.3 49.5-365.9 57-365.9 57-365.1 57-364.3 51.1-364.3 53.4-362 57-362 57-361.2 57-360.4 54.9-360.4 57-358.5 56.7-358.5 -28.9-358.1 -28.9-358.3 -28.9-443.8 -28.9-444 -28.6-443.8Z"/>
</svg>
