<svg class="svg-word" xmlns="http://www.w3.org/2000/svg" viewBox="-481 55 600 240">
    <path d="M-282 134L-281 163 -290 163C-290 156-291 151-294 148 -297 144-301 143-306 143L-312 143 -312 203C-312 204-312 205-312 206 -312 207-312 209-312 210 -312 211-312 212-312 212 -312 213-312 214-312 214L-302 214 -302 224 -340 224 -340 216C-338 215-337 215-336 215 -335 215-334 214-333 214 -332 213-332 212-331 210 -331 209-331 207-331 204L-331 143 -337 143C-341 143-345 144-348 148 -351 151-352 156-353 163L-361 163 -360 134 -282 134ZM-210 203C-210 204-210 205-210 206 -210 206-210 207-210 208 -210 209-210 210-210 212 -210 213-210 214-210 215L-202 214 -202 224 -236 224 -236 216C-234 216-232 215-231 215 -230 214-230 214-229 213 -229 212-228 210-228 209 -228 208-228 206-228 204L-228 186C-228 180-229 176-231 173 -232 171-235 170-238 170 -241 170-243 170-245 171 -247 172-249 173-250 174L-250 203C-250 204-250 205-250 206 -250 206-250 207-250 208 -250 209-250 210-250 212 -250 213-251 214-251 215L-242 214 -242 224 -276 224 -276 216C-274 216-273 215-272 215 -271 214-270 214-270 213 -269 212-269 210-269 209 -268 208-268 206-268 204L-268 151C-268 150-268 148-268 146 -268 144-268 142-268 140L-277 141 -277 131C-274 131-271 131-269 130 -267 130-265 130-263 130 -262 129-260 129-259 128 -258 128-258 127-257 127L-250 127 -250 165C-249 164-247 163-246 162 -244 161-243 160-241 160 -239 159-237 159-236 158 -234 158-233 158-231 158 -227 158-224 158-221 159 -219 160-216 162-215 164 -213 167-212 170-211 173 -210 177-210 181-210 186L-210 203ZM-168 203C-168 204-168 205-168 206 -168 206-168 207-168 208 -168 209-168 210-168 212 -169 213-169 214-169 215L-160 214 -160 224 -194 224 -194 216C-192 216-191 215-190 215 -189 214-188 214-188 213 -187 212-187 210-187 209 -186 208-186 206-186 204L-186 183C-186 181-186 180-186 178 -186 176-186 174-186 172L-195 172 -195 162C-192 162-189 162-187 162 -185 162-183 161-181 161 -180 161-178 160-177 160 -176 159-176 159-175 158L-168 158 -168 203ZM-166 137C-166 138-167 139-167 141 -167 142-168 143-169 144 -170 145-171 146-172 146 -173 147-174 147-176 147 -177 147-179 147-180 146 -181 146-182 145-183 144 -184 143-185 142-185 141 -186 139-186 138-186 137 -186 135-186 134-185 132 -185 131-184 130-183 129 -182 128-181 127-180 127 -179 126-177 126-176 126 -175 126-173 126-172 127 -171 127-170 128-169 129 -168 130-167 131-167 132 -167 134-166 135-166 137L-166 137ZM-85 203C-85 204-86 205-86 206 -86 206-86 207-86 208 -86 209-86 210-86 212 -86 213-86 214-86 215L-78 214 -78 224 -111 224 -111 216C-110 216-108 215-107 215 -106 214-105 214-105 213 -104 212-104 210-104 209 -104 208-104 206-104 204L-104 186C-104 180-105 176-106 173 -108 171-111 170-114 170 -116 170-119 170-121 171 -123 172-125 173-126 174L-126 203C-126 204-126 205-126 206 -126 206-126 207-126 208 -126 209-126 210-126 212 -126 213-126 214-127 215L-118 214 -118 224 -152 224 -152 216C-150 216-149 215-148 215 -147 214-146 214-145 213 -145 212-145 210-144 209 -144 208-144 206-144 204L-144 183C-144 181-144 179-144 177 -144 176-144 174-144 172L-153 172 -153 162C-150 162-147 162-145 162 -143 162-141 161-139 161 -137 161-136 160-135 160 -134 159-133 159-133 158L-127 158 -126 165 -126 165C-125 164-123 163-122 162 -120 161-118 160-117 160 -115 159-113 159-112 158 -110 158-109 158-107 158 -103 158-100 158-97 159 -94 160-92 162-90 164 -89 167-87 170-87 173 -86 177-85 181-85 186L-85 203ZM-46 203C-46 204-46 205-46 206 -46 206-46 207-46 208 -46 209-46 210-46 212 -46 213-46 214-46 215L-38 214 -38 224 -72 224 -72 216C-70 216-69 215-68 215 -67 214-66 214-65 213 -65 212-65 210-64 209 -64 208-64 206-64 204L-64 151C-64 150-64 148-64 146 -64 144-64 142-64 140L-73 141 -73 131C-70 131-67 131-65 130 -63 130-61 130-59 130 -57 129-56 129-55 128 -54 128-53 127-53 127L-46 127 -46 186 -40 186 -31 175C-29 174-29 173-28 172 -27 171-26 170-25 170L-25 169 -32 170 -32 160 -3 160 -3 168C-6 168-8 169-9 169 -11 170-13 171-14 172 -16 173-17 174-18 175 -20 176-21 177-22 178L-30 187 -30 187C-29 188-29 188-28 189 -27 189-27 189-26 190 -25 191-25 191-24 192 -23 193-22 194-21 195L-13 207C-12 207-12 208-11 209 -10 210-9 211-8 212 -7 213-6 214-5 215 -4 215-2 216-1 216L-1 224 -16 224C-17 224-18 224-20 223 -21 223-22 222-23 221 -24 220-25 219-26 218 -28 216-29 215-30 213 -31 211-32 210-34 208 -35 206-36 204-37 203 -38 201-40 200-41 198 -42 197-42 195-43 195L-46 195 -46 203Z"/>
</svg>
