<svg class="svg-word" xmlns="http://www.w3.org/2000/svg" viewBox="-481 362 600 240"><path d="M-361 502C-361 511-359 514-353 520L-343 528C-337 533-334 533-327 533L-306 533C-301 533-297 532-297 526 -297 521-302 520-306 520L-329 520C-331 520-334 518-336 517L-344 510C-346 508-348 507-348 504L-348 488C-348 485-346 484-344 482L-336 476C-334 474-331 472-329 472L-306 472C-302 472-297 471-297 466 -297 460-301 459-306 459L-327 459C-334 459-337 459-343 464L-353 472C-359 478-361 482-361 490L-361 502ZM-262 508C-262 517-260 520-253 526 -247 532-244 533-235 533L-225 533C-217 533-214 532-207 526 -200 520-198 517-198 508L-198 484C-198 475-200 472-206 467 -213 461-216 459-225 459L-235 459C-245 459-248 461-254 467 -261 472-262 475-262 484L-262 508ZM-249 484C-249 481-248 479-245 476 -242 473-240 472-235 472L-225 472C-221 472-219 473-216 476 -212 479-211 481-211 484L-211 508C-211 511-212 513-216 516 -219 519-221 520-225 520L-235 520C-240 520-242 519-245 516 -248 513-249 511-249 508L-249 484ZM-140 459C-145 459-148 460-152 464L-157 468C-162 472-164 476-164 483L-164 509C-164 516-162 520-157 525L-152 528C-150 530-145 533-141 533L-128 533C-124 533-120 530-116 526L-113 523 -113 524C-113 529-111 533-106 533 -101 533-100 528-100 524L-100 441C-100 437-101 432-106 432 -112 432-113 437-113 441L-113 469 -115 466C-120 462-123 459-128 459L-140 459ZM-151 488C-151 484-151 480-149 478L-145 475C-143 474-141 472-140 472L-130 472C-129 472-127 473-124 476L-117 482C-115 484-113 485-113 488L-113 504C-113 507-115 508-117 510L-124 517C-127 519-129 520-130 520L-140 520C-141 520-143 519-145 517L-149 514C-151 512-151 508-151 504L-151 488ZM-10 533C-6 533-1 532-1 526 -1 521-6 520-10 520L-38 520C-43 520-45 519-47 517L-50 514C-51 513-52 511-52 510L-52 506 -10 506C-2 506-1 503-1 496L-1 485C-1 478-2 473-8 468L-13 464C-18 460-21 459-28 459L-40 459C-45 459-48 459-54 465L-59 469C-64 473-65 477-65 484L-65 510C-65 517-64 520-59 525L-53 529C-49 533-47 533-41 533L-10 533ZM-52 483C-52 479-51 478-49 477L-45 474C-43 472-41 472-38 472L-27 472C-25 472-22 472-21 474L-16 478C-14 480-14 482-14 484L-14 492 -52 492 -52 483Z"/></svg>
