<svg xmlns="http://www.w3.org/2000/svg" viewBox="1028 168 36 32" class="svg-social-icon">
  <g transform="translate(1028 168)">
    <path d="M12.58 13.43C13.65 13.4 14.53 13.03 15.24 12.33 15.59 11.83 15.81 11.32 15.9 10.8 15.96 10.28 15.99 9.84 15.99 9.49 15.99 7.95 15.58 6.39 14.77 4.83 14.39 4.08 13.88 3.47 13.26 3 12.62 2.55 11.89 2.32 11.06 2.29 9.96 2.32 9.05 2.75 8.32 3.57 7.71 4.44 7.42 5.4 7.45 6.47 7.45 7.88 7.87 9.35 8.73 10.88 9.14 11.59 9.68 12.19 10.33 12.69 10.99 13.19 11.74 13.43 12.58 13.43L12.58 13.43ZM18.22 24.87C18.22 23.88 17.89 23.02 17.22 22.28 16.51 21.59 15.4 20.73 13.89 19.71 13.64 19.69 13.33 19.68 12.99 19.68 12.78 19.65 12.25 19.68 11.4 19.75 10.56 19.87 9.71 20.05 8.83 20.3 8.63 20.38 8.34 20.49 7.96 20.65 7.59 20.81 7.21 21.05 6.82 21.35 6.45 21.67 6.13 22.06 5.88 22.53 5.58 23.03 5.43 23.62 5.43 24.32 5.43 25.69 6.08 26.82 7.36 27.71 8.59 28.6 10.26 29.06 12.39 29.08 14.29 29.06 15.75 28.65 16.75 27.86 17.73 27.09 18.22 26.09 18.22 24.87L18.22 24.87ZM16.66 2.41C16.91 2.56 17.2 2.78 17.52 3.07 17.82 3.38 18.12 3.75 18.41 4.2 18.69 4.62 18.94 5.11 19.15 5.68 19.33 6.25 19.42 6.92 19.42 7.68 19.4 9.08 19.08 10.19 18.46 11.03 18.16 11.44 17.84 11.81 17.5 12.15 17.13 12.5 16.73 12.85 16.31 13.2 16.07 13.44 15.85 13.72 15.64 14.02 15.4 14.34 15.28 14.71 15.28 15.12 15.28 15.53 15.4 15.87 15.65 16.13 15.86 16.39 16.07 16.61 16.26 16.8L17.64 17.88C18.49 18.56 19.24 19.3 19.88 20.11 20.49 20.94 20.8 22.02 20.83 23.35 20.83 25.24 19.96 26.91 18.23 28.37 16.43 29.88 13.84 30.66 10.46 30.72 7.63 30.69 5.51 30.11 4.12 28.97 2.71 27.9 2 26.63 2 25.15 2 24.43 2.23 23.62 2.69 22.73 3.13 21.85 3.94 21.07 5.11 20.4 6.42 19.68 7.79 19.19 9.23 18.95 10.66 18.75 11.85 18.64 12.79 18.61 12.5 18.24 12.24 17.85 12.01 17.42 11.74 17.02 11.61 16.52 11.61 15.95 11.61 15.61 11.66 15.32 11.76 15.09 11.85 14.85 11.93 14.62 12.01 14.42 11.55 14.47 11.12 14.5 10.71 14.5 8.56 14.47 6.92 13.82 5.79 12.54 4.61 11.34 4.02 9.95 4.02 8.37 4.02 6.45 4.85 4.71 6.53 3.15 7.68 2.24 8.87 1.64 10.11 1.36 11.34 1.12 12.49 1 13.56 1L21.65 1 19.15 2.41 16.66 2.41Z" />
    <polygon points="34 15 30 15 30 11 28 11 28 15 24 15 24 17 28 17 28 21 30 21 30 17 34 17"/>
  </g>
</svg>
