<svg xmlns="http://www.w3.org/2000/svg" viewBox="1028 168 36 32" class="svg-social-icon">
  <path d="M1061.06 199L1054.83 199 1054.83 189.26C1054.83 186.93 1054.79 183.94 1051.59 183.94 1048.35 183.94 1047.86 186.47 1047.86 189.09L1047.86 199 1041.64 199 1041.64 178.96 1047.61 178.96 1047.61 181.7 1047.69 181.7C1048.52 180.13 1050.55 178.46 1053.58 178.46 1059.89 178.46 1061.06 182.61 1061.06 188.01L1061.06 199ZM1034.61 176.22C1032.61 176.22 1031 174.61 1031 172.61 1031 170.62 1032.61 169 1034.61 169 1036.61 169 1038.22 170.62 1038.22 172.61 1038.22 174.61 1036.61 176.22 1034.61 176.22L1034.61 176.22ZM1037.73 199L1031.49 199 1031.49 178.96 1037.73 178.96 1037.73 199Z"/>
</svg>
