<svg xmlns="http://www.w3.org/2000/svg" viewBox="1028 168 36 32" class="svg-social-icon">
  <path d="M1064 172.55C1062.68 173.15 1061.25 173.56 1059.76 173.74 1061.28 172.81 1062.45 171.32 1063.01 169.55 1061.58 170.42 1060 171.05 1058.32 171.39 1056.97 169.92 1055.05 169 1052.92 169 1048.85 169 1045.54 172.39 1045.54 176.57 1045.54 177.17 1045.6 177.74 1045.73 178.3 1039.59 177.98 1034.15 174.97 1030.51 170.39 1029.87 171.5 1029.51 172.81 1029.51 174.19 1029.51 176.82 1030.81 179.14 1032.79 180.5 1031.58 180.46 1030.44 180.12 1029.45 179.55 1029.45 179.58 1029.45 179.61 1029.45 179.65 1029.45 183.32 1031.99 186.38 1035.37 187.07 1034.75 187.24 1034.1 187.34 1033.42 187.34 1032.95 187.34 1032.49 187.29 1032.04 187.2 1032.97 190.21 1035.7 192.4 1038.94 192.46 1036.41 194.49 1033.22 195.7 1029.76 195.7 1029.17 195.7 1028.58 195.67 1028 195.6 1031.27 197.75 1035.15 199 1039.32 199 1052.91 199 1060.34 187.46 1060.34 177.45 1060.34 177.12 1060.33 176.8 1060.31 176.47 1061.76 175.4 1063.01 174.07 1064 172.55"/>
</svg>
