<svg class="logo-image" xmlns="http://www.w3.org/2000/svg" viewBox="0 0 1059 445">
  <g class="rake-logo">
    <path d="M158 318.3L158 131.9 240.9 131.9C254.1 131.9 265.9 134.6 276.1 140 286.3 145.5 294.2 153.1 299.8 163 305.4 172.8 308.2 184.1 308.2 196.6 308.2 210.1 304.8 222 298 232.6 291.2 243.1 281.9 250.9 270.2 255.8 282.3 271.1 298.3 291.9 318.4 318.3L270.2 318.3C259.3 304.7 244.4 285.3 225.6 260.1L198 260.1 198 318.3 158 318.3ZM240.9 225.2C247.8 225.2 254.1 222.7 259.7 217.7 265.4 212.7 268.2 205.6 268.2 196.6 268.2 189.3 266.2 182.5 262.3 176.2 258.4 169.9 251.2 166.8 240.9 166.8L198 166.8 198 225.2 240.9 225.2ZM430 126L532.2 318.3 488.1 318.3 473.3 289.7 386.4 289.7 372.1 318.3 327.7 318.3 430 126ZM454 255.3L430 206.6 406.3 255.3 454 255.3ZM601.2 318.3L561 318.3 561 131.9 601.2 131.9 601.2 209.6 673.9 131.9 723.9 131.9 647.1 210.9 727.2 318.3 677.7 318.3 619.4 239 601.2 257.8 601.2 318.3ZM799.8 208.4L889 208.4 889 243.6 799.8 243.6 799.8 283.3 900.8 283.3 900.8 318.3 759.5 318.3 759.5 131.9 900.8 131.9 900.8 166.8 799.8 166.8 799.8 208.4Z"/>
    <path d="M0 38L0 38 38 0 38 445 0 407 1059 407 1021 445 1021 0 1059 38 0 38ZM0 0L1059 0 1059 445 0 445 0 0 0 0Z"/>
  </g>
</svg>
