<svg class="logo-image" xmlns="http://www.w3.org/2000/svg" viewBox="0 0 150 63">
  <g class="rake-logo">
    <path d="M22.042 42.533L22.042 16.105 33.78 16.105C35.658 16.105 37.32 16.491 38.765 17.262 40.209 18.033 41.329 19.118 42.124 20.516 42.918 21.914 43.316 23.504 43.316 25.288 43.316 27.192 42.834 28.891 41.871 30.386 40.908 31.88 39.595 32.977 37.934 33.676 39.644 35.845 41.919 38.797 44.76 42.533L37.934 42.533C36.393 40.605 34.286 37.857 31.613 34.29L27.712 34.29 27.712 42.533 22.042 42.533ZM33.78 29.337C34.767 29.337 35.658 28.982 36.453 28.271 37.248 27.56 37.645 26.565 37.645 25.288 37.645 24.252 37.368 23.288 36.814 22.396 36.26 21.504 35.249 21.058 33.78 21.058L27.712 21.058 27.712 29.337 33.78 29.337ZM60.566 15.274L75.05 42.533 68.802 42.533 66.707 38.484 54.39 38.484 52.367 42.533 46.083 42.533 60.566 15.274ZM63.962 33.603L60.566 26.698 57.207 33.603 63.962 33.603ZM84.824 42.533L79.118 42.533 79.118 16.105 84.824 16.105 84.824 27.132 95.118 16.105 102.198 16.105 91.326 27.313 102.667 42.533 95.66 42.533 87.389 31.289 84.824 33.965 84.824 42.533ZM112.947 26.951L125.589 26.951 125.589 31.94 112.947 31.94 112.947 37.58 127.25 37.58 127.25 42.533 107.24 42.533 107.24 16.105 127.25 16.105 127.25 21.058 112.947 21.058 112.947 26.951Z" id="RAKE"/>
    <path d="M79.785 50.076L79.785 47.327 80.578 47.327C80.796 47.327 80.979 47.357 81.128 47.418 81.277 47.48 81.398 47.569 81.493 47.686 81.587 47.804 81.655 47.946 81.696 48.113 81.737 48.28 81.758 48.47 81.758 48.681 81.758 48.9 81.735 49.086 81.691 49.239 81.646 49.393 81.589 49.522 81.52 49.624 81.45 49.727 81.372 49.808 81.284 49.867 81.197 49.927 81.108 49.972 81.019 50.004 80.93 50.035 80.846 50.055 80.766 50.063 80.687 50.071 80.621 50.076 80.568 50.076L79.785 50.076ZM79.314 46.93L79.314 50.473 80.528 50.473C80.822 50.473 81.077 50.431 81.292 50.349 81.507 50.266 81.683 50.146 81.822 49.989 81.961 49.832 82.064 49.638 82.13 49.408 82.196 49.178 82.229 48.914 82.229 48.617 82.229 48.048 82.082 47.624 81.788 47.346 81.493 47.069 81.074 46.93 80.528 46.93L79.314 46.93ZM84.907 46.93L84.907 50.473 85.378 50.473 85.378 46.93 84.907 46.93ZM90.902 50.031L91.026 50.473 91.324 50.473 91.324 48.607 89.772 48.607 89.772 49.004 90.902 49.004C90.909 49.166 90.887 49.317 90.838 49.458 90.788 49.598 90.715 49.721 90.617 49.825 90.52 49.929 90.4 50.011 90.258 50.071 90.116 50.13 89.952 50.16 89.767 50.16 89.569 50.16 89.394 50.121 89.244 50.043 89.094 49.966 88.967 49.861 88.865 49.731 88.762 49.6 88.685 49.45 88.632 49.279 88.579 49.109 88.552 48.931 88.552 48.746 88.552 48.557 88.576 48.373 88.622 48.192 88.668 48.012 88.74 47.852 88.837 47.711 88.935 47.571 89.061 47.457 89.214 47.371 89.368 47.285 89.552 47.242 89.767 47.242 89.899 47.242 90.024 47.258 90.141 47.289 90.259 47.321 90.364 47.368 90.456 47.431 90.549 47.494 90.626 47.574 90.689 47.671 90.752 47.769 90.795 47.886 90.818 48.021L91.289 48.021C91.256 47.813 91.194 47.635 91.103 47.488 91.012 47.341 90.9 47.219 90.766 47.123 90.632 47.027 90.48 46.957 90.31 46.912 90.14 46.868 89.959 46.845 89.767 46.845 89.486 46.845 89.241 46.897 89.031 47.002 88.821 47.106 88.646 47.246 88.505 47.421 88.365 47.596 88.259 47.8 88.188 48.034 88.117 48.267 88.081 48.513 88.081 48.771 88.081 49.002 88.119 49.225 88.195 49.44 88.271 49.655 88.382 49.846 88.528 50.011 88.673 50.177 88.85 50.308 89.058 50.406 89.266 50.503 89.503 50.552 89.767 50.552 89.975 50.552 90.182 50.511 90.387 50.43 90.592 50.349 90.763 50.216 90.902 50.031L90.902 50.031ZM94.121 46.93L94.121 50.473 94.592 50.473 94.592 46.93 94.121 46.93ZM98.272 47.327L98.272 50.473 98.743 50.473 98.743 47.327 99.923 47.327 99.923 46.93 97.092 46.93 97.092 47.327 98.272 47.327ZM102.552 49.009L103.152 47.356 103.161 47.356 103.751 49.009 102.552 49.009ZM102.904 46.93L101.525 50.473 102.006 50.473 102.403 49.406 103.9 49.406 104.287 50.473 104.807 50.473 103.424 46.93 102.904 46.93ZM107.238 46.93L107.238 50.473 109.583 50.473 109.583 50.076 107.709 50.076 107.709 46.93 107.238 46.93ZM118.028 47.996L118.499 47.996C118.473 47.808 118.417 47.642 118.331 47.498 118.245 47.354 118.137 47.234 118.008 47.138 117.88 47.042 117.733 46.969 117.567 46.92 117.402 46.87 117.227 46.845 117.042 46.845 116.771 46.845 116.53 46.894 116.32 46.992 116.111 47.089 115.935 47.222 115.795 47.391 115.655 47.56 115.548 47.757 115.475 47.984 115.403 48.211 115.366 48.453 115.366 48.711 115.366 48.969 115.4 49.211 115.468 49.435 115.536 49.66 115.637 49.856 115.773 50.021 115.908 50.186 116.078 50.316 116.283 50.411 116.488 50.505 116.728 50.552 117.002 50.552 117.455 50.552 117.812 50.428 118.073 50.18 118.334 49.932 118.488 49.584 118.534 49.138L118.063 49.138C118.053 49.283 118.023 49.419 117.974 49.545 117.924 49.67 117.856 49.779 117.768 49.87 117.68 49.961 117.576 50.032 117.456 50.083 117.335 50.134 117.197 50.16 117.042 50.16 116.83 50.16 116.648 50.12 116.496 50.041 116.344 49.961 116.22 49.855 116.122 49.721 116.025 49.587 115.953 49.43 115.907 49.249 115.86 49.069 115.837 48.878 115.837 48.676 115.837 48.491 115.86 48.312 115.907 48.14 115.953 47.968 116.025 47.815 116.122 47.681 116.22 47.547 116.344 47.441 116.494 47.361 116.644 47.282 116.825 47.242 117.037 47.242 117.285 47.242 117.499 47.305 117.679 47.431 117.859 47.556 117.975 47.745 118.028 47.996L118.028 47.996ZM121.475 48.701C121.475 48.522 121.498 48.346 121.545 48.173 121.591 47.999 121.664 47.843 121.763 47.704 121.862 47.565 121.989 47.453 122.144 47.369 122.3 47.284 122.485 47.242 122.7 47.242 122.915 47.242 123.1 47.284 123.255 47.369 123.41 47.453 123.538 47.565 123.637 47.704 123.736 47.843 123.809 47.999 123.855 48.173 123.901 48.346 123.924 48.522 123.924 48.701 123.924 48.88 123.901 49.056 123.855 49.23 123.809 49.403 123.736 49.56 123.637 49.698 123.538 49.837 123.41 49.949 123.255 50.033 123.1 50.118 122.915 50.16 122.7 50.16 122.485 50.16 122.3 50.118 122.144 50.033 121.989 49.949 121.862 49.837 121.763 49.698 121.664 49.56 121.591 49.403 121.545 49.23 121.498 49.056 121.475 48.88 121.475 48.701L121.475 48.701ZM121.004 48.701C121.004 48.943 121.04 49.175 121.111 49.398 121.182 49.622 121.288 49.819 121.431 49.991 121.573 50.163 121.75 50.3 121.961 50.401 122.173 50.502 122.419 50.552 122.7 50.552 122.981 50.552 123.227 50.502 123.438 50.401 123.65 50.3 123.827 50.163 123.969 49.991 124.111 49.819 124.218 49.622 124.289 49.398 124.36 49.175 124.395 48.943 124.395 48.701 124.395 48.46 124.36 48.227 124.289 48.004 124.218 47.781 124.111 47.583 123.969 47.411 123.827 47.239 123.65 47.102 123.438 46.999 123.227 46.897 122.981 46.845 122.7 46.845 122.419 46.845 122.173 46.897 121.961 46.999 121.75 47.102 121.573 47.239 121.431 47.411 121.288 47.583 121.182 47.781 121.111 48.004 121.04 48.227 121.004 48.46 121.004 48.701L121.004 48.701ZM127.079 49.922L127.079 50.473 127.629 50.473 127.629 49.922 127.079 49.922Z" id="DIGITAL-CO."/>
    <path d="M0 4L0 4 4 0 4 63.091 0 59.091 150 59.091 146 63.091 146 0 150 4 0 4ZM0 0L150 0 150 63.091 0 63.091 0 0 0 0Z" id="Rectangle-1"/>
  </g>
</svg>
