<svg class="logo-zen-rake" xmlns="http://www.w3.org/2000/svg" viewBox="493 647 213 56">
  <path class="svg-path-sand" d="M603.3 686.6C602.7 687 601.9 687.5 601 688.1 598.5 689.6 595.7 691.2 592.8 692.6 584.9 696.5 577 698.9 569.8 699.2 568.8 699.2 567.9 699.2 567 699.2 558.8 698.9 553.4 697 544.9 692.3 545 692.4 542.8 691.2 542.2 690.8 537.2 688.1 533.8 686.6 529.7 685.8 519.7 683.7 510 685.1 501.1 688.7 499 689.5 497.1 690.4 495.5 691.3 494.5 691.9 494.1 692.3 494.1 692.3L494.1 695.7 495.1 695.1C495.2 695 495.3 694.9 495.5 694.8 495.9 694.5 496.4 694.2 496.9 694 498.5 693.1 500.3 692.3 502.2 691.5 510.6 688.1 519.8 686.8 529 688.7 532.8 689.5 536 690.9 540.7 693.5 541.4 693.8 543.6 695 543.5 695 552.4 699.8 558.1 701.9 566.9 702.2 567.9 702.2 568.9 702.2 569.9 702.2 577.6 701.9 585.8 699.3 594.1 695.3 597.1 693.8 600 692.2 602.6 690.6 603.5 690.1 604.3 689.5 605 689.1 605.2 688.9 605.3 688.8 605.3 688.8L605.3 685.2 604.1 686C604 686.1 603.7 686.3 603.3 686.6ZM603.3 676.7C602.7 677.1 601.9 677.6 601 678.2 598.5 679.7 595.7 681.3 592.8 682.7 584.9 686.6 577 689 569.8 689.3 568.8 689.3 567.9 689.3 567 689.3 558.8 689 553.4 687.1 544.9 682.4 545 682.5 542.8 681.3 542.2 680.9 537.2 678.2 533.8 676.7 529.7 675.9 529.4 675.8 529.1 675.8 528.8 675.7 519.2 673.9 509 675.7 499.1 679.7 496.5 680.7 494.1 681.8 494.1 681.8L494.1 685.4C494.1 685.4 497.7 683.4 500.2 682.4 509.7 678.6 519.3 677 528.2 678.6 528.5 678.7 528.8 678.8 529 678.8 532.8 679.6 536 680.9 540.7 683.6 541.4 683.9 543.6 685.1 543.5 685.1 552.4 689.9 558.1 692 566.9 692.3 567.9 692.3 568.9 692.3 569.9 692.3 577.6 692 585.8 689.4 594.1 685.4 597.1 683.9 600 682.3 602.6 680.7 603.5 680.2 604.3 679.6 605 679.2 605.2 679 605.3 678.9 605.3 678.9L605.3 675.2 604.1 676.1C604 676.2 603.7 676.4 603.3 676.7ZM603.3 666.9C602.7 667.3 601.9 667.8 601 668.4 598.5 669.9 595.7 671.5 592.8 672.9 584.9 676.8 577 679.2 569.8 679.5 568.8 679.5 567.9 679.5 567 679.5 558.8 679.2 553.4 677.3 544.9 672.6 545 672.7 542.8 671.4 542.2 671.1 537.2 668.4 533.8 666.9 529.7 666.1 526.7 665.4 523.6 665.2 520.3 665.3 512.8 665.6 504.9 667.6 497 670.7 494 671.9 493.9 672.1 493.9 672.1L493.9 675.1C493.9 675.1 495.2 674.7 498.1 673.5 505.8 670.5 513.3 668.5 520.4 668.3 523.4 668.2 526.3 668.4 529 669 532.8 669.8 536 671.1 540.7 673.7 541.4 674.1 543.6 675.3 543.5 675.2 552.4 680.1 558.1 682.2 566.9 682.5 567.9 682.5 568.9 682.5 569.9 682.5 577.6 682.1 585.8 679.6 594.1 675.6 597.1 674.1 600 672.5 602.6 670.9 603.5 670.3 603.7 670.3 604.4 669.8 604.7 669.6 604.9 669.5 605.1 669.4 605.2 669.3 605.3 669.2 605.3 669.2L605.3 665.4 604.1 666.3C604 666.4 603.7 666.6 603.3 666.9Z"/>
  <path class="svg-path-rake" d="M626.5 668.5L626.5 647.5 620.5 647.5 620.5 653.3 612 661 612 665 620.5 657.4 620.5 663 612 670.7 612 674.7 620.5 667 620.5 672.7 612 680.4 612 684.4 620.5 676.7 620.5 682.3 612 690 612 694 620.5 686.4 620.5 692.5 626.5 692.5 626.5 671.5 705.9 671.5 705.9 668.5 626.5 668.5Z"/>
</svg>
