<svg class="menu-image light" xmlns="http://www.w3.org/2000/svg" viewBox="-314 -1078 101 28">
  <g class="menu-image-close">
    <path d="M-239.83-1063.62L-250.42-1053.03 -246.63-1049.24 -236.04-1059.82 -225.45-1049.24 -221.66-1053.03 -232.25-1063.62 -221.66-1074.21 -225.45-1078 -236.04-1067.41 -246.63-1078 -250.42-1074.21 -239.83-1063.62Z" class="undefined"/>
    <path d="M-305.66-1058.71C-306.53-1058.2-307.47-1057.94-308.48-1057.94 -309.48-1057.94-310.4-1058.18-311.25-1058.65 -312.09-1059.13-312.76-1059.77-313.26-1060.59 -313.75-1061.4-314-1062.29-314-1063.25 -314-1064.2-313.75-1065.08-313.26-1065.89 -312.76-1066.7-312.09-1067.35-311.25-1067.82 -310.4-1068.3-309.48-1068.54-308.48-1068.54 -307.48-1068.54-306.54-1068.28-305.67-1067.78 -304.8-1067.27-304.12-1066.59-303.63-1065.74L-305.68-1064.94C-306.01-1065.41-306.42-1065.79-306.92-1066.09 -307.42-1066.39-307.94-1066.54-308.48-1066.54 -309.08-1066.54-309.63-1066.39-310.14-1066.08 -310.64-1065.78-311.04-1065.37-311.33-1064.87 -311.63-1064.37-311.77-1063.83-311.77-1063.25 -311.77-1062.67-311.63-1062.12-311.33-1061.62 -311.04-1061.11-310.64-1060.7-310.14-1060.4 -309.63-1060.09-309.08-1059.94-308.48-1059.94 -307.94-1059.94-307.42-1060.09-306.92-1060.4 -306.42-1060.7-306.01-1061.09-305.68-1061.57L-303.63-1060.77C-304.12-1059.91-304.8-1059.22-305.66-1058.71L-305.66-1058.71ZM-294.53-1058.14L-302.11-1058.14 -302.11-1068.37 -299.89-1068.37 -299.89-1060.05 -294.53-1060.05 -294.53-1058.14ZM-290.94-1058.65C-291.78-1059.13-292.45-1059.78-292.94-1060.59 -293.44-1061.41-293.69-1062.3-293.69-1063.26 -293.69-1064.21-293.44-1065.1-292.94-1065.91 -292.45-1066.73-291.78-1067.38-290.94-1067.85 -290.1-1068.33-289.18-1068.57-288.18-1068.57 -287.19-1068.57-286.26-1068.33-285.41-1067.85 -284.56-1067.38-283.89-1066.73-283.4-1065.91 -282.9-1065.1-282.65-1064.21-282.65-1063.26 -282.65-1062.3-282.9-1061.41-283.4-1060.59 -283.89-1059.78-284.56-1059.13-285.41-1058.65 -286.26-1058.18-287.19-1057.94-288.18-1057.94 -289.18-1057.94-290.1-1058.18-290.94-1058.65L-290.94-1058.65ZM-289.84-1066.1C-290.34-1065.79-290.74-1065.39-291.04-1064.88 -291.34-1064.38-291.49-1063.84-291.49-1063.26 -291.49-1062.68-291.34-1062.14-291.04-1061.63 -290.74-1061.12-290.34-1060.71-289.84-1060.4 -289.33-1060.1-288.78-1059.94-288.18-1059.94 -287.59-1059.94-287.03-1060.1-286.52-1060.4 -286.02-1060.71-285.62-1061.12-285.32-1061.63 -285.03-1062.14-284.88-1062.68-284.88-1063.26 -284.88-1063.84-285.03-1064.38-285.32-1064.88 -285.62-1065.39-286.02-1065.79-286.52-1066.1 -287.03-1066.4-287.59-1066.55-288.18-1066.55 -288.78-1066.55-289.33-1066.4-289.84-1066.1L-289.84-1066.1ZM-278.54-1060.33C-277.88-1060.06-277.27-1059.93-276.72-1059.93 -276.14-1059.93-275.68-1060.04-275.34-1060.26 -275-1060.49-274.83-1060.75-274.83-1061.06 -274.83-1061.31-274.93-1061.52-275.13-1061.68 -275.33-1061.84-275.58-1061.96-275.89-1062.04 -276.2-1062.12-276.61-1062.2-277.11-1062.29 -277.78-1062.41-278.4-1062.55-278.96-1062.73 -279.52-1062.91-280.03-1063.21-280.48-1063.65 -280.94-1064.09-281.17-1064.68-281.17-1065.43 -281.17-1066.53-280.77-1067.32-279.96-1067.8 -279.15-1068.28-278.2-1068.52-277.11-1068.52 -276.27-1068.52-275.54-1068.41-274.92-1068.18 -274.3-1067.95-273.68-1067.61-273.06-1067.15L-274.3-1065.47C-274.75-1065.8-275.23-1066.06-275.72-1066.24 -276.22-1066.43-276.71-1066.52-277.19-1066.52 -277.62-1066.52-278.02-1066.45-278.4-1066.29 -278.77-1066.14-278.96-1065.88-278.96-1065.51 -278.96-1065.29-278.86-1065.11-278.67-1064.98 -278.48-1064.84-278.27-1064.74-278.04-1064.68 -277.81-1064.62-277.44-1064.53-276.93-1064.42L-276.42-1064.32C-275.65-1064.18-275.01-1064.01-274.5-1063.83 -273.99-1063.65-273.55-1063.34-273.18-1062.91 -272.8-1062.48-272.62-1061.88-272.62-1061.12 -272.62-1060.08-272.98-1059.29-273.72-1058.75 -274.45-1058.21-275.44-1057.94-276.69-1057.94 -278.52-1057.94-280.06-1058.47-281.31-1059.54L-280.13-1061.23C-279.73-1060.89-279.2-1060.59-278.54-1060.33L-278.54-1060.33ZM-268.75-1064.17L-263.85-1064.17 -263.85-1062.24 -268.75-1062.24 -268.75-1060.05 -263.21-1060.05 -263.21-1058.14 -270.96-1058.14 -270.96-1068.37 -263.21-1068.37 -263.21-1066.45 -268.75-1066.45 -268.75-1064.17Z" class="undefined"/>
  </g>
  <g class="menu-image-open">
    <path d="M-257.86-1078L-214.99-1078 -214.99-1072.81 -257.86-1072.81 -257.86-1078ZM-257.86-1066.59L-214.99-1066.59 -214.99-1061.41 -257.86-1061.41 -257.86-1066.59ZM-257.86-1055.19L-214.99-1055.19 -214.99-1050 -257.86-1050 -257.86-1055.19Z" class="undefined"/>
    <path d="M-303.06-1058.76L-305.33-1058.76 -305.33-1063.82 -308.53-1060.05 -311.73-1063.82 -311.73-1058.76 -314-1058.76 -314-1069.7 -308.53-1063.43 -303.06-1069.7 -303.06-1058.76ZM-298.41-1065.01L-293.41-1065.01 -293.41-1063.01 -298.41-1063.01 -298.41-1060.75 -292.75-1060.75 -292.75-1058.76 -300.67-1058.76 -300.67-1069.37 -292.75-1069.37 -292.75-1067.38 -298.41-1067.38 -298.41-1065.01ZM-288.41-1058.76L-290.65-1058.76 -290.65-1069.7 -283.45-1063.23 -283.45-1069.36 -281.19-1069.36 -281.19-1058.42 -288.41-1064.8 -288.41-1058.76ZM-276.61-1059.12C-277.31-1059.49-277.86-1060.01-278.24-1060.69 -278.63-1061.37-278.82-1062.15-278.82-1063.05L-278.82-1069.36 -276.56-1069.36 -276.56-1063.05C-276.56-1062.43-276.43-1061.94-276.17-1061.57 -275.91-1061.19-275.59-1060.93-275.23-1060.77 -274.86-1060.62-274.5-1060.54-274.13-1060.54 -273.78-1060.54-273.42-1060.62-273.05-1060.77 -272.69-1060.93-272.38-1061.19-272.12-1061.57 -271.86-1061.94-271.73-1062.43-271.73-1063.05L-271.73-1069.36 -269.48-1069.36 -269.48-1063.05C-269.48-1062.15-269.67-1061.37-270.05-1060.69 -270.43-1060.01-270.97-1059.49-271.68-1059.12 -272.38-1058.75-273.2-1058.57-274.13-1058.57 -275.08-1058.57-275.9-1058.75-276.61-1059.12L-276.61-1059.12Z" class="undefined"/>
  </g>
</svg>
