<svg class="svg-scroll" xmlns="http://www.w3.org/2000/svg" viewBox="660 769 41 70">
  <g>
    <path id="svg-sm-body" d="M661 789.5L661 789.5 661 818.5C661 829.3 669.7 838 680.5 838 691.3 838 700 829.3 700 818.5L700 789.5C700 778.7 691.3 770 680.5 770 669.7 770 661 778.7 661 789.5L661 789.5ZM660 789.5C660 778.2 669.2 769 680.5 769 691.8 769 701 778.2 701 789.5L701 818.5C701 829.8 691.8 839 680.5 839 669.2 839 660 829.8 660 818.5L660 789.5 660 789.5Z"/>
    <path id="svg-sm-button" d="M677 782.8C677 780.7 678.6 779 680.5 779 682.4 779 684 780.7 684 782.8L684 788.2C684 790.3 682.4 792 680.5 792 678.6 792 677 790.3 677 788.2L677 782.8 677 782.8Z"/>
  </g>
</svg>
