<svg xmlns="http://www.w3.org/2000/svg" viewBox="0 764 2612 677">
  <path class="svg-arcade" d="M0 1440.13L0 784.62 291.43 784.62C338.06 784.62 379.31 794.19 415.18 813.32 451.05 832.45 478.85 859.35 498.58 894.02 518.31 928.7 528.17 968.15 528.17 1012.39 528.17 1059.62 516.21 1101.76 492.3 1138.83 468.39 1175.89 435.81 1203.09 394.56 1220.43 437 1274.23 493.5 1347.47 564.04 1440.13L394.56 1440.13C356.3 1392.3 303.99 1324.15 237.63 1235.68L140.79 1235.68 140.79 1440.13 0 1440.13ZM291.43 1112.82C315.94 1112.82 338.06 1104.01 357.79 1086.37 377.52 1068.74 387.38 1044.08 387.38 1012.39 387.38 986.69 380.51 962.77 366.76 940.65 353.01 918.53 327.9 907.48 291.43 907.48L140.79 907.48 140.79 1112.82 291.43 1112.82ZM956.45 764L1316.04 1440.13 1160.91 1440.13 1108.9 1339.7 803.11 1339.7 752.9 1440.13 596.87 1440.13 956.45 764ZM1040.74 1218.64L956.45 1047.36 873.06 1218.64 1040.74 1218.64ZM1558.7 1440.13L1417.02 1440.13 1417.02 784.62 1558.7 784.62 1558.7 1058.12 1814.27 784.62 1990.02 784.62 1720.11 1062.61 2001.68 1440.13 1827.72 1440.13 1622.37 1161.25 1558.7 1227.6 1558.7 1440.13ZM2256.9 1053.64L2570.75 1053.64 2570.75 1177.39 2256.9 1177.39 2256.9 1317.28 2612 1317.28 2612 1440.13 2115.22 1440.13 2115.22 784.62 2612 784.62 2612 907.48 2256.9 907.48 2256.9 1053.64Z" fill="#202329"/>
</svg>
