<svg xmlns="http://www.w3.org/2000/svg" width="396" height="59" viewBox="0 0 396 59" version="1"><style>.a{fill:#F4A621;}.b{fill:#010201;}</style><g style="fill-rule:evenodd;fill:none"><path d="M0 59L59 59 59 0 0 0 0 59 0 59ZM3.1 55.9L55.9 55.9 55.9 3.1 3.1 3.1 3.1 55.9 3.1 55.9Z" class="a"/><path d="M45 43.5C45 45.8 44.9 45.8 44.3 46.2 41.1 47.8 36.6 48.3 33.7 48.3 30 48.3 22.8 48 16.9 43.2 13.8 40.7 10.7 35.9 10.7 29.4 10.7 21.7 14.7 16.2 19.4 13.5 23.8 10.9 28.7 10.6 32.2 10.6 35.9 10.6 38.3 11 40.4 11.4 41.3 11.5 43.6 11.8 44.8 11.9 45.2 11.9 45.2 12.1 45.2 12.3 45.2 13 44.8 14.7 44.8 19.7 44.8 20.5 44.8 20.7 44.4 20.7 44.1 20.7 44 20.4 44 20 44 19.5 43.7 17.8 42.9 16.5 41.6 14.6 37.4 12.5 31 12.5 27.9 12.5 24.3 12.7 20.4 15.5 17.5 17.8 15.6 22.1 15.6 27.7 15.6 34.4 19.3 39.4 20.8 40.8 24.6 44.5 28.9 46.1 33.9 46.1 35.5 46.1 38 45.8 39.3 45.2 39.9 44.8 40.3 44.2 40.3 43.5L40.3 35.3C40.3 31.5 40 30.8 38 30.5 37.6 30.5 37.1 30.4 36.6 30.4 36.2 30.4 35.9 30.2 35.9 30 35.9 29.7 36.2 29.6 36.8 29.6 39.1 29.6 42.4 29.7 42.6 29.7 42.9 29.7 46.3 29.6 47.8 29.6 48.4 29.6 48.6 29.7 48.6 30 48.6 30.2 48.4 30.4 47.9 30.4 47.5 30.4 47.4 30.4 46.9 30.5 45.6 30.6 45.2 31.7 45.1 33.3 45 34.9 45 36.4 45 38.4L45 43.5 45 43.5 45 43.5Z" class="a"/><path d="M32.3 45.1C32.4 50.2 27 47.7 27.8 45.1L27.8 24.8C25.9 24.8 23 24.8 20.8 24.9 17.3 24.9 16.5 25.5 15.8 26.7 15.3 27.5 15.1 28.2 14.9 28.4 14.8 28.8 14.7 28.9 14.4 28.9 14.2 28.9 14.2 28.7 14.2 28.4 14.1 28.1 14.9 24.3 15.3 22.8 15.4 22.1 15.6 21.9 15.8 21.9 16.1 21.9 17.2 22.4 18.2 22.5 20.1 22.7 21.6 22.8 21.7 22.8L39.7 22.8C41.3 22.8 42.9 22.7 43.7 22.5 44.4 22.3 44.6 22.3 44.7 22.3 45 22.3 45.1 22.5 45.1 22.8 45.1 24.4 45 28.1 45 28.6 45 29.1 44.7 29.2 44.6 29.2 44.3 29.2 44.2 29 44.2 28.6 44.2 28.4 44.2 28.3 44.1 27.8 43.9 25.5 43.2 24.9 37.6 24.9 35.6 24.9 33.9 24.8 32.3 24.8L32.3 45.1 32.3 45.1Z" class="a"/><path d="M77.8 34.8C75.3 32.4 74.1 29.1 74.1 25.1 74.1 21.1 75.3 17.9 77.8 15.4 80.3 12.9 83.5 11.7 87.5 11.7 90.9 11.7 93.9 12.5 96.6 14.2L97.3 19.4 97 19.4C96.4 17.3 95.3 15.7 93.7 14.5 92 13.4 89.9 12.8 87.5 12.8 84.3 12.8 81.8 13.9 79.8 16.2 77.8 18.5 76.9 21.4 76.9 25.1 76.9 28.8 77.8 31.8 79.8 34 81.8 36.3 84.3 37.4 87.5 37.5 89.1 37.5 90.6 37.2 92.1 36.6 93.6 36 94.8 35.3 95.9 34.2L95.9 27.7C95.9 27.2 95.8 26.8 95.4 26.5 95.1 26.2 94.6 26 94 26L93.4 26 93.4 25.7 100.7 25.7 100.7 26 100.2 26C99.6 26 99.1 26.2 98.8 26.5 98.4 26.8 98.3 27.2 98.3 27.7L98.3 33.8C97.7 34.6 96.9 35.4 96 36.1 95.1 36.7 93.9 37.3 92.4 37.8 90.9 38.3 89.2 38.6 87.5 38.6 83.5 38.5 80.3 37.3 77.8 34.8" class="b"/><path d="M110.3 17L108.3 17 108.3 35.7C108.4 36.4 108.7 37 109.4 37.4 109.7 37.6 110.1 37.7 110.5 37.7L110.9 37.7 111 38 103.3 38 103.3 37.7 103.8 37.7C104.4 37.7 104.9 37.5 105.3 37.1 105.7 36.7 105.9 36.3 105.9 35.7L105.9 18.2C105.9 17.6 105.7 17.2 105.3 16.8 104.9 16.4 104.4 16.3 103.8 16.3L103.3 16.3 103.3 15.9 112.7 15.9C115 15.9 116.9 16.4 118.3 17.5 119.6 18.5 120.3 19.9 120.3 21.7 120.3 23.4 119.7 24.8 118.6 26 117.5 27.1 116.2 27.8 114.5 28 115.3 28.3 116.2 29.3 117.3 30.9 117.3 30.9 117.7 31.4 118.6 32.5 119.5 33.6 120.2 34.4 120.8 35 121.3 35.6 121.7 36.1 122.1 36.4 123 37.3 124.1 37.7 125.3 37.7L125.3 38 124.1 38C122.1 38 120.6 37.7 119.5 36.9 118.6 36.3 117.8 35.6 117.1 34.8 117 34.6 116.4 33.7 115.3 32.2 114.2 30.7 113.6 29.8 113.5 29.7 112.1 28.1 110.9 27.3 109.7 27.3L109.7 26.9C112.6 26.9 114.4 26.8 115 26.5 115.8 26 116.4 25.6 116.7 25.1 117.3 24.1 117.6 23.1 117.6 21.9 117.6 20.4 117.1 19.2 116.3 18.4 115.4 17.6 114.1 17.2 112.6 17.1 112 17.1 111.2 17 110.3 17" class="b"/><path d="M132.6 29.4L141.1 29.4 136.9 19.3 132.6 29.4 132.6 29.4ZM149.4 37.7L149.7 37.7 149.7 38 142 38 142 37.7 142.3 37.7C142.8 37.7 143.1 37.5 143.4 37.2 143.6 36.9 143.8 36.6 143.8 36.3 143.8 36 143.7 35.7 143.6 35.5L141.5 30.6 132.1 30.6 130 35.4C129.9 35.7 129.9 36 129.9 36.3 129.9 36.5 130 36.8 130.2 37.2 130.5 37.5 130.8 37.7 131.3 37.7L131.6 37.7 131.6 38 124.5 38 124.5 37.7 124.8 37.7C125.3 37.7 125.9 37.5 126.4 37.1 126.9 36.8 127.4 36.3 127.7 35.5 133.2 24 136 18 136.2 17.4 136.7 16.4 136.9 15.7 136.9 15.4L137.2 15.4 146.5 35.5C147.2 37 148.2 37.7 149.4 37.7L149.4 37.7 149.4 37.7Z" class="b"/><path d="M168.2 37.7C168.7 37.7 169.2 37.5 169.6 37.1 170.1 36.7 170.3 36.3 170.3 35.7L170.3 27.7 156.5 27.7 156.5 35.7C156.6 36.3 156.8 36.7 157.2 37.1 157.6 37.5 158.1 37.7 158.7 37.7L159.1 37.7 159.1 38 151.5 38 151.5 37.7 152 37.7C152.6 37.7 153.1 37.5 153.5 37.1 153.9 36.7 154.1 36.2 154.1 35.7L154.1 18.3C154.1 17.7 153.9 17.3 153.5 16.9 153 16.5 152.5 16.3 152 16.3L151.5 16.3 151.5 15.9 159.1 15.9 159.1 16.3 158.7 16.3C158.1 16.3 157.6 16.5 157.2 16.8 156.8 17.2 156.6 17.7 156.5 18.2L156.5 26.6 170.3 26.6 170.3 18.3C170.3 17.7 170.2 17.3 169.8 17 169.3 16.5 168.7 16.3 168.2 16.3L167.7 16.3 167.7 15.9 175.3 15.9 175.3 16.3 174.9 16.3C174.3 16.3 173.8 16.4 173.4 16.8 173 17.2 172.7 17.6 172.7 18.2L172.7 35.7C172.7 36.3 172.9 36.7 173.2 36.9 173.7 37.4 174.3 37.7 174.9 37.7L175.3 37.7 175.3 38 167.7 38 167.7 37.7 168.2 37.7 168.2 37.7Z" class="b"/><path d="M185.2 29.4L193.7 29.4 189.6 19.3 185.2 29.4 185.2 29.4ZM202 37.7L202.3 37.7 202.3 38 194.6 38 194.6 37.7 194.9 37.7C195.4 37.7 195.8 37.5 196 37.2 196.3 36.9 196.4 36.6 196.4 36.3 196.4 36 196.3 35.7 196.2 35.5L194.2 30.6 184.7 30.6 182.7 35.4C182.6 35.7 182.5 36 182.5 36.3 182.5 36.5 182.6 36.8 182.9 37.2 183.1 37.5 183.5 37.7 184 37.7L184.3 37.7 184.3 38 177.2 38 177.2 37.7 177.5 37.7C178 37.7 178.5 37.5 179 37.1 179.6 36.8 180 36.3 180.4 35.5 185.8 24 188.7 18 188.9 17.4 189.3 16.4 189.5 15.7 189.6 15.4L189.9 15.4 199.1 35.5C199.8 37 200.8 37.7 202 37.7L202 37.7 202 37.7Z" class="b"/><path d="M234.1 37.7L234.7 37.7 234.7 38 226.9 38 226.9 37.7 227.4 37.7C227.8 37.7 228.2 37.6 228.4 37.3 228.7 37 228.8 36.7 228.8 36.3L226.8 21.1 219.8 34.8C219.1 36.3 218.7 37.6 218.5 38.6L218.1 38.6 209.1 21.4 207.4 36.3C207.4 36.6 207.5 37 207.8 37.3 208.1 37.6 208.4 37.7 208.8 37.7L209.3 37.7 209.3 38 202.4 38 202.4 37.7 203 37.7C203.9 37.7 204.6 37.4 205.1 36.7 205.3 36.4 205.5 36 205.5 35.6L208.4 15.4 208.8 15.4 218.7 34.1 228.2 15.4 228.5 15.4 231.6 35.7C231.7 36.3 231.9 36.8 232.4 37.1 232.9 37.5 233.5 37.7 234.1 37.7" class="b"/><path d="M266.3 15.5C266.3 14.9 266.1 14.4 265.6 14 265.2 13.5 264.7 13.3 264.1 13.3L257 13.3 257 35.4C257.1 36 257.3 36.6 257.8 37 258.2 37.5 258.8 37.7 259.4 37.7L259.9 37.7 259.9 38 251.7 38 251.7 37.7 252.2 37.7C252.9 37.7 253.4 37.5 253.9 37 254.3 36.6 254.6 36 254.6 35.4L254.6 13.3 247.5 13.3C246.9 13.3 246.4 13.5 246 14 245.6 14.4 245.4 14.9 245.4 15.5L245.4 16.1 245 16.2 245 11.5C245.4 11.6 246 11.8 247 11.9 247.9 12.1 248.7 12.2 249.5 12.2L262.1 12.2C263.3 12.2 264.4 12.1 265.2 11.9 266 11.7 266.5 11.6 266.6 11.5L266.6 16.2 266.3 16.1 266.3 15.5 266.3 15.5Z" class="b"/><path d="M286 37.7C286.6 37.7 287.1 37.5 287.5 37.1 288 36.7 288.2 36.3 288.2 35.7L288.2 27.7 274.4 27.7 274.4 35.7C274.4 36.3 274.7 36.7 275.1 37.1 275.5 37.5 276 37.7 276.6 37.7L277 37.7 277 38 269.4 38 269.4 37.7 269.9 37.7C270.5 37.7 271 37.5 271.4 37.1 271.8 36.7 272 36.2 272 35.7L272 18.3C272 17.7 271.8 17.3 271.3 16.9 270.9 16.5 270.4 16.3 269.9 16.3L269.4 16.3 269.4 15.9 277 15.9 277 16.3 276.6 16.3C276 16.3 275.5 16.5 275.1 16.8 274.7 17.2 274.4 17.7 274.4 18.2L274.4 26.6 288.2 26.6 288.2 18.3C288.2 17.7 288 17.3 287.7 17 287.2 16.5 286.6 16.3 286 16.3L285.6 16.3 285.6 15.9 293.2 15.9 293.2 16.3 292.8 16.3C292.2 16.3 291.7 16.4 291.3 16.8 290.8 17.2 290.6 17.6 290.6 18.2L290.6 35.7C290.6 36.3 290.8 36.7 291.1 36.9 291.6 37.4 292.2 37.7 292.8 37.7L293.2 37.7 293.2 38 285.6 38 285.6 37.7 286 37.7 286 37.7Z" class="b"/><path d="M302.1 34.5C304 36.5 306.3 37.5 309.1 37.5 311.9 37.5 314.3 36.5 316.2 34.5 318 32.6 319 30.1 319 27 319 23.9 318 21.4 316.2 19.4 314.3 17.5 311.9 16.5 309.1 16.5 306.3 16.5 304 17.5 302.1 19.4 300.2 21.4 299.3 23.9 299.3 27 299.3 30.1 300.2 32.6 302.1 34.5M302.8 16.8C304.7 15.9 306.8 15.4 309.1 15.4 311.4 15.4 313.6 15.9 315.5 16.8 317.4 17.8 318.9 19.2 320.1 21 321.2 22.7 321.8 24.7 321.8 27 321.8 29.2 321.2 31.2 320.1 33 318.9 34.8 317.4 36.1 315.5 37.1 313.6 38.1 311.6 38.6 309.6 38.6 307.6 38.6 305.8 38.3 304.2 37.7 302.7 37.2 301.3 36.4 300.2 35.4 299.1 34.3 298.2 33.1 297.5 31.7 296.9 30.2 296.5 28.5 296.5 26.5 296.5 24.6 297.1 22.7 298.2 21 299.4 19.2 300.9 17.8 302.8 16.8" class="b"/><path d="M355.2 37.7L355.8 37.7 355.8 38 348 38 348 37.7 348.5 37.7C348.9 37.7 349.2 37.6 349.5 37.3 349.8 37 349.9 36.7 349.9 36.3L347.9 21.1 340.9 34.8C340.2 36.3 339.8 37.6 339.6 38.6L339.2 38.6 330.2 21.4 328.5 36.3C328.5 36.6 328.6 37 328.9 37.3 329.2 37.6 329.5 37.7 329.9 37.7L330.4 37.7 330.4 38 323.5 38 323.5 37.7 324.1 37.7C325 37.7 325.7 37.4 326.2 36.7 326.4 36.4 326.6 36 326.6 35.6L329.5 15.4 329.9 15.4 339.8 34.1 349.3 15.4 349.6 15.4 352.7 35.7C352.8 36.3 353 36.8 353.5 37.1 354 37.5 354.5 37.7 355.2 37.7" class="b"/><path d="M372.4 29.4L368.2 19.3 363.9 29.4M380.7 37.7L381 37.7 381 38 373.3 38 373.3 37.7 373.6 37.7C374.1 37.7 374.5 37.5 374.7 37.2 374.9 36.9 375.1 36.6 375.1 36.3 375.1 36 375 35.7 374.9 35.5L372.9 30.6 363.4 30.6 361.4 35.4C361.2 35.7 361.2 36 361.2 36.3 361.2 36.5 361.3 36.8 361.5 37.2 361.8 37.5 362.2 37.7 362.7 37.7L363 37.7 363 38 355.8 38 355.8 37.7 356.1 37.7C356.7 37.7 357.2 37.5 357.7 37.1 358.3 36.8 358.7 36.3 359 35.5 364.5 24 367.3 18 367.6 17.4 368 16.4 368.2 15.7 368.2 15.4L368.6 15.4 377.8 35.5C378.5 37 379.5 37.7 380.7 37.7" class="b"/><path d="M383 36.8C382.9 36.5 382.8 35.9 382.8 35 382.8 34.1 383 33.2 383.3 32.3L383.8 32.3C383.8 32.5 383.7 32.7 383.7 32.9 383.7 34.2 384.2 35.3 385.1 36.2 386 37 387.2 37.5 388.7 37.5 390.4 37.5 391.7 37.1 392.6 36.3 393.5 35.6 394 34.6 394 33.4 394 32.2 393.5 31.2 392.6 30.4L385.2 24.8C384 23.7 383.4 22.4 383.4 20.7 383.4 19.7 383.6 18.8 384.2 18 384.7 17.2 385.5 16.6 386.4 16.1 387.4 15.6 388.5 15.4 389.8 15.4 391.1 15.4 392.2 15.5 393.2 15.7L394.5 15.7 394.5 19.7 394.1 19.7C394.1 18.7 393.8 17.9 393 17.3 392.3 16.8 391.3 16.5 389.9 16.5 388.6 16.5 387.5 16.8 386.6 17.5 385.7 18.2 385.3 19.1 385.3 20.1 385.3 21.2 385.8 22.1 386.8 22.9L394.3 28.7C395.5 29.6 396 30.9 396 32.6 396 34.3 395.4 35.7 394.1 36.8 392.8 38 391.3 38.6 389.4 38.6 388.2 38.6 387 38.4 385.8 38.1 384.5 37.8 383.6 37.4 383 36.8" class="b"/><polygon points="173.9 50.7 174.5 50.7 174.5 54.4 180.9 54.4 180.9 50.7 181.5 50.7 181.5 58.8 180.9 58.8 180.9 54.8 174.5 54.8 174.5 58.8 173.9 58.8" class="b"/><path d="M184.8 54.8C184.8 55.3 184.9 55.8 185.1 56.3 185.3 56.7 185.6 57.1 185.9 57.5 186.3 57.8 186.7 58.1 187.2 58.3 187.8 58.5 188.3 58.6 189 58.6 189.6 58.6 190.2 58.5 190.7 58.3 191.2 58.1 191.7 57.8 192 57.5 192.4 57.1 192.7 56.7 192.8 56.3 193 55.8 193.1 55.3 193.1 54.8 193.1 54.3 193 53.8 192.8 53.3 192.7 52.8 192.4 52.4 192 52.1 191.7 51.8 191.2 51.5 190.7 51.3 190.2 51.1 189.6 51 189 51 188.3 51 187.8 51.1 187.2 51.3 186.7 51.5 186.3 51.8 185.9 52.1 185.6 52.4 185.3 52.8 185.1 53.3 184.9 53.8 184.8 54.3 184.8 54.8M193.7 54.8C193.7 55.4 193.6 55.9 193.4 56.4 193.2 57 192.9 57.4 192.5 57.8 192.1 58.2 191.6 58.5 191 58.7 190.4 58.9 189.7 59 189 59 188.2 59 187.6 58.9 187 58.7 186.4 58.5 185.9 58.2 185.5 57.8 185.1 57.4 184.8 57 184.5 56.4 184.3 55.9 184.2 55.4 184.2 54.8 184.2 54.2 184.3 53.6 184.5 53.1 184.8 52.6 185.1 52.2 185.5 51.8 185.9 51.4 186.4 51.1 187 50.9 187.6 50.6 188.2 50.5 189 50.5 189.7 50.5 190.4 50.6 191 50.9 191.6 51.1 192.1 51.4 192.5 51.8 192.9 52.2 193.2 52.6 193.4 53.1 193.6 53.6 193.7 54.2 193.7 54.8" class="b"/><polygon points="196.5 50.7 197.4 50.7 201.3 58.3 201.3 58.3 205.2 50.7 206.1 50.7 206.1 58.8 205.5 58.8 205.5 51.3 205.4 51.3 201.6 58.8 201 58.8 197.1 51.3 197.1 51.3 197.1 58.8 196.5 58.8" class="b"/><polygon points="209.3 50.7 216 50.7 216 51.1 209.9 51.1 209.9 54.4 215.6 54.4 215.6 54.8 209.9 54.8 209.9 58.4 216.1 58.4 216.1 58.8 209.3 58.8" class="b"/><path d="M227.9 58.4C228.8 58.4 229.5 58.2 230 57.9 230.5 57.6 230.7 57.1 230.7 56.5 230.7 56.2 230.7 55.9 230.5 55.7 230.3 55.5 230.1 55.3 229.8 55.2 229.5 55 229.2 54.9 228.9 54.9 228.5 54.8 228.2 54.8 227.9 54.8L224.5 54.8 224.5 58.4 227.9 58.4 227.9 58.4ZM227.9 54.4C228.7 54.4 229.4 54.2 229.8 53.9 230.2 53.6 230.4 53.2 230.4 52.7 230.4 52.4 230.3 52.2 230.2 52 230.1 51.8 229.9 51.6 229.6 51.5 229.4 51.4 229.1 51.3 228.8 51.2 228.5 51.2 228.2 51.1 227.9 51.1L224.5 51.1 224.5 54.4 227.9 54.4 227.9 54.4ZM223.9 50.7L227.9 50.7C228.5 50.7 229 50.8 229.4 50.9 229.8 51 230.1 51.2 230.3 51.4 230.6 51.6 230.8 51.8 230.9 52 231 52.3 231 52.5 231 52.8 231 53 231 53.2 230.9 53.4 230.8 53.6 230.7 53.8 230.5 53.9 230.3 54.1 230.1 54.2 229.9 54.3 229.6 54.4 229.4 54.5 229.1 54.5L229.1 54.5C229.2 54.5 229.3 54.6 229.6 54.6 229.8 54.7 230.1 54.8 230.3 54.9 230.6 55.1 230.8 55.3 231 55.5 231.3 55.8 231.4 56.1 231.4 56.5 231.4 56.9 231.3 57.2 231.1 57.5 230.9 57.8 230.7 58 230.4 58.2 230.1 58.4 229.7 58.6 229.3 58.7 228.9 58.8 228.4 58.8 227.9 58.8L223.9 58.8 223.9 50.7 223.9 50.7Z" class="b"/><path d="M234.7 50.7L234.7 55.6 234.7 56.1C234.8 56.4 234.8 56.6 234.9 56.8 234.9 57 235.1 57.2 235.2 57.5 235.3 57.7 235.5 57.9 235.7 58 236 58.2 236.3 58.3 236.6 58.4 236.9 58.5 237.4 58.6 237.8 58.6 238.5 58.6 239 58.5 239.4 58.4 239.8 58.3 240.1 58 240.4 57.8 240.7 57.5 240.8 57.2 241 56.8 241.1 56.5 241.1 56.1 241.1 55.6L241.1 50.7 241.7 50.7 241.7 55.6C241.7 56.1 241.7 56.5 241.5 56.9 241.4 57.4 241.2 57.7 240.9 58 240.6 58.3 240.2 58.6 239.7 58.8 239.2 58.9 238.6 59 237.8 59 237.3 59 236.8 59 236.3 58.8 235.9 58.7 235.6 58.6 235.3 58.4 235 58.2 234.8 58 234.6 57.7 234.5 57.5 234.4 57.2 234.3 57 234.2 56.7 234.1 56.5 234.1 56.2L234.1 55.6 234.1 50.7 234.7 50.7 234.7 50.7Z" class="b"/><polygon points="245 58.8 245.6 58.8 245.6 50.7 245 50.7" class="b"/><polygon points="248.8 50.7 249.4 50.7 249.4 58.4 255.1 58.4 255.1 58.8 248.8 58.8" class="b"/><path d="M260.5 58.4C261 58.4 261.5 58.3 261.9 58.2 262.4 58.1 262.8 57.9 263.2 57.6 263.6 57.3 263.9 57 264.1 56.5 264.4 56 264.5 55.4 264.5 54.7 264.5 54.2 264.4 53.7 264.3 53.3 264.2 52.9 264 52.6 263.8 52.3 263.5 52.1 263.3 51.8 263 51.7 262.7 51.5 262.4 51.4 262.1 51.3 261.8 51.3 261.5 51.2 261.2 51.2 260.9 51.1 260.6 51.1 260.4 51.1L257.8 51.1 257.8 58.4 260.5 58.4 260.5 58.4ZM257.2 50.7L260.5 50.7C261.4 50.7 262.1 50.8 262.7 51 263.3 51.3 263.8 51.6 264.1 51.9 264.5 52.3 264.8 52.8 264.9 53.2 265 53.7 265.1 54.2 265.1 54.7 265.1 55.3 265 55.9 264.8 56.3 264.7 56.8 264.4 57.3 264 57.6 263.6 58 263.1 58.3 262.5 58.5 262 58.7 261.3 58.8 260.5 58.8L257.2 58.8 257.2 50.7 257.2 50.7Z" class="b"/><polygon points="268 50.7 274.7 50.7 274.7 51.1 268.6 51.1 268.6 54.4 274.3 54.4 274.3 54.8 268.6 54.8 268.6 58.4 274.8 58.4 274.8 58.8 268 58.8" class="b"/><path d="M281.4 54.7C281.8 54.7 282.1 54.6 282.5 54.6 282.8 54.5 283 54.4 283.3 54.2 283.5 54.1 283.7 53.9 283.8 53.7 283.9 53.4 284 53.1 284 52.8 284 52.5 283.9 52.3 283.8 52 283.6 51.8 283.4 51.7 283.2 51.5 283 51.4 282.7 51.3 282.4 51.2 282.1 51.2 281.8 51.1 281.4 51.1L277.9 51.1 277.9 54.7 281.4 54.7 281.4 54.7ZM277.3 50.7L281.4 50.7C281.9 50.7 282.3 50.7 282.7 50.8 283.1 50.9 283.4 51 283.7 51.2 284 51.3 284.2 51.5 284.4 51.8 284.5 52.1 284.6 52.4 284.6 52.8 284.6 53.3 284.4 53.8 284 54.2 283.7 54.5 283.1 54.8 282.5 54.9L282.5 54.9C282.9 54.9 283.3 55 283.5 55.2 283.8 55.3 284 55.5 284.1 55.7 284.3 56 284.4 56.2 284.4 56.5L284.4 57.3 284.4 57.7C284.4 57.9 284.5 58 284.5 58.2 284.5 58.3 284.5 58.4 284.6 58.5 284.6 58.6 284.7 58.7 284.7 58.8L284.1 58.8C283.9 58.6 283.9 58.4 283.8 58.1L283.8 57.4 283.8 56.5C283.7 56.3 283.7 56 283.5 55.8 283.4 55.6 283.1 55.4 282.8 55.3 282.5 55.2 282 55.1 281.4 55.1L277.9 55.1 277.9 58.8 277.3 58.8 277.3 50.7 277.3 50.7Z" class="b"/><path d="M294 53C294 52.7 293.9 52.4 293.8 52.1 293.6 51.8 293.4 51.6 293.1 51.5 292.8 51.3 292.5 51.2 292.1 51.1 291.7 51 291.3 50.9 290.8 50.9 290.6 50.9 290.3 51 289.9 51 289.6 51.1 289.3 51.2 289 51.3 288.8 51.4 288.5 51.6 288.4 51.8 288.2 52.1 288.1 52.3 288.1 52.7 288.1 53 288.2 53.3 288.4 53.5 288.6 53.7 288.8 53.8 289.2 54 289.5 54.1 289.8 54.2 290.2 54.3 290.7 54.3 291.1 54.4 291.5 54.5 291.9 54.5 292.3 54.6 292.8 54.7 293.2 54.8 293.5 54.9 293.8 55.1 294.2 55.3 294.4 55.5 294.6 55.7 294.8 56 294.9 56.3 294.9 56.7 294.9 57.1 294.8 57.5 294.6 57.8 294.4 58.1 294.1 58.3 293.7 58.5 293.4 58.7 293 58.8 292.6 58.9 292.2 59 291.8 59 291.4 59 290.8 59 290.3 58.9 289.7 58.8 289.2 58.7 288.8 58.6 288.4 58.3 288 58.1 287.7 57.8 287.5 57.5 287.3 57.1 287.2 56.6 287.2 56.1L287.8 56.1C287.8 56.6 287.8 57 288 57.3 288.2 57.6 288.5 57.8 288.8 58 289.1 58.2 289.5 58.4 290 58.4 290.4 58.5 290.9 58.6 291.4 58.6 291.7 58.6 292 58.5 292.4 58.5 292.7 58.4 293 58.3 293.3 58.2 293.6 58 293.8 57.8 294 57.6 294.2 57.4 294.3 57.1 294.3 56.7 294.3 56.4 294.2 56.1 294 55.9 293.8 55.7 293.5 55.5 293.2 55.4 292.9 55.2 292.5 55.1 292.1 55 291.7 55 291.3 54.9 290.9 54.8 290.5 54.8 290 54.7 289.6 54.6 289.2 54.5 288.9 54.4 288.5 54.2 288.2 54.1 288 53.9 287.8 53.6 287.6 53.4 287.5 53 287.5 52.7 287.5 52.3 287.6 51.9 287.8 51.7 288 51.4 288.2 51.2 288.6 51 288.9 50.8 289.2 50.7 289.6 50.6 290 50.5 290.4 50.5 290.8 50.5 291.4 50.5 291.8 50.6 292.3 50.6 292.8 50.7 293.2 50.9 293.5 51.1 293.8 51.3 294.1 51.6 294.3 51.9 294.5 52.2 294.6 52.6 294.7 53L294 53 294 53Z" class="b"/></g></svg>
